<svg width="668" height="668" viewBox="0 0 668 668" fill="none" xmlns="http://www.w3.org/2000/svg">
<path d="M667.347 334.211C667.347 400.141 647.797 464.59 611.168 519.409C574.539 574.227 522.478 616.953 461.566 642.184C400.655 667.414 333.63 674.015 268.967 661.153C204.304 648.291 144.907 616.542 98.2877 569.923C51.6682 523.303 19.92 463.907 7.05767 399.244C-5.80461 334.58 0.796778 267.555 26.027 206.644C51.2573 145.733 93.9833 93.6711 148.802 57.0424C203.621 20.4138 268.07 0.863281 334 0.863281C377.776 0.863281 421.123 9.48557 461.566 26.2378C502.01 42.9901 538.758 67.5443 569.712 98.4985C600.666 129.453 625.22 166.201 641.973 206.644C658.725 247.088 667.347 290.435 667.347 334.211ZM383.095 204.021H323.389L232.526 270.632L266.463 317.074L317.916 277.284V480.063H383.052L383.095 204.021Z" fill="#2D336B"/>
</svg>
