<svg width="668" height="668" viewBox="0 0 668 668" fill="none" xmlns="http://www.w3.org/2000/svg">
<path d="M667.347 334.211C667.347 400.141 647.797 464.59 611.168 519.409C574.539 574.227 522.478 616.953 461.566 642.184C400.655 667.414 333.63 674.015 268.967 661.153C204.304 648.291 144.907 616.542 98.2877 569.923C51.6682 523.303 19.92 463.907 7.05767 399.244C-5.80461 334.58 0.796778 267.555 26.027 206.644C51.2573 145.733 93.9833 93.6711 148.802 57.0424C203.621 20.4138 268.07 0.863281 334 0.863281C377.776 0.863281 421.123 9.48557 461.566 26.2378C502.01 42.9901 538.758 67.5443 569.712 98.4985C600.666 129.453 625.22 166.201 641.973 206.644C658.725 247.088 667.347 290.435 667.347 334.211ZM438.674 423.179H325.958L389.916 366.211C396.175 360.512 402.21 354.73 408.021 348.863C413.834 343.088 419.066 336.756 423.642 329.958C428.223 323.15 431.836 315.739 434.379 307.937C437.089 299.288 438.41 290.263 438.295 281.2C438.582 268.223 435.691 255.372 429.874 243.769C424.494 233.356 416.838 224.29 407.474 217.242C397.863 210.113 387.013 204.83 375.474 201.663C363.415 198.279 350.946 196.579 338.421 196.611C325.377 196.534 312.407 198.582 300.021 202.674C288.298 206.531 277.391 212.527 267.852 220.358C258.439 228.166 250.582 237.68 244.695 248.4C238.377 259.992 234.454 272.736 233.158 285.874L295.937 294.463C296.69 283.342 301.001 272.758 308.231 264.274C314.907 257.346 323.983 253.241 333.593 252.802C343.203 252.364 352.616 255.625 359.895 261.916C363.02 265.041 365.464 268.779 367.072 272.895C368.681 277.011 369.42 281.416 369.242 285.832C369.336 293.792 367.175 301.616 363.01 308.4C358.413 315.691 352.91 322.369 346.631 328.274L239.01 425.579V480.105H438.674V423.179Z" fill="#2D336B"/>
</svg>
