<svg width="668" height="668" viewBox="0 0 668 668" fill="none" xmlns="http://www.w3.org/2000/svg">
<path d="M667.347 334.211C667.347 400.141 647.797 464.59 611.168 519.409C574.539 574.227 522.478 616.953 461.566 642.184C400.655 667.414 333.63 674.015 268.967 661.153C204.304 648.291 144.907 616.542 98.2877 569.923C51.6682 523.303 19.92 463.907 7.05767 399.244C-5.80461 334.58 0.796778 267.555 26.027 206.644C51.2573 145.733 93.9833 93.6711 148.802 57.0424C203.621 20.4138 268.07 0.863281 334 0.863281C377.776 0.863281 421.123 9.48557 461.566 26.2378C502.01 42.9901 538.758 67.5443 569.712 98.4985C600.666 129.453 625.22 166.201 641.973 206.644C658.725 247.088 667.347 290.435 667.347 334.211ZM436.231 399.895C436.289 392.38 434.976 384.918 432.358 377.874C429.785 371.071 426.084 364.751 421.41 359.179C416.63 353.514 410.972 348.653 404.653 344.779C398.022 340.705 390.767 337.747 383.179 336.021V334.842C396.284 331.48 407.979 324.033 416.568 313.579C425.419 302.598 430.049 288.813 429.621 274.716C429.909 262.652 427.004 250.727 421.2 240.148C415.72 230.505 408.205 222.171 399.179 215.726C389.795 209.099 379.299 204.207 368.189 201.284C356.559 198.165 344.568 196.593 332.526 196.611C321.191 196.591 309.904 198.092 298.968 201.074C288.284 203.957 278.093 208.428 268.737 214.337C259.525 220.167 251.402 227.563 244.737 236.19C237.78 245.334 232.635 255.724 229.579 266.8L290.379 280.821C292.136 272.018 296.899 264.099 303.852 258.421C310.728 252.821 319.365 249.838 328.231 250C336.936 249.883 345.434 252.652 352.4 257.874C355.884 260.511 358.666 263.963 360.501 267.928C362.337 271.893 363.17 276.248 362.926 280.611C363.312 286.021 362.091 291.425 359.417 296.144C356.742 300.863 352.734 304.687 347.895 307.137C343.098 309.688 337.9 311.397 332.526 312.19C326.593 313.125 320.596 313.59 314.589 313.579H295.474V361.158H313.031C319.82 361.167 326.596 361.758 333.284 362.926C339.581 363.947 345.686 365.921 351.389 368.779C356.544 371.351 360.973 375.173 364.274 379.895C367.684 385.099 369.391 391.235 369.158 397.453C369.338 403.126 368.063 408.75 365.452 413.79C363.164 418.012 359.972 421.678 356.105 424.526C352.217 427.318 347.85 429.373 343.221 430.59C338.584 431.862 333.798 432.513 328.989 432.527C317.807 432.96 306.855 429.274 298.21 422.169C290.595 415.968 285.021 407.62 282.21 398.211L221.368 414.211C227.441 437.654 242.509 457.759 263.305 470.169C273.37 476.144 284.289 480.546 295.684 483.221C307.611 486.095 319.837 487.537 332.105 487.516C344.836 487.513 357.504 485.742 369.747 482.253C381.718 478.924 393.007 473.507 403.095 466.253C413.02 459.068 421.218 449.762 427.095 439.011C433.442 426.955 436.588 413.514 436.231 399.895Z" fill="#2D336B"/>
</svg>
