<svg width="480" height="480" viewBox="0 0 480 480" fill="none" xmlns="http://www.w3.org/2000/svg">
<path d="M240 479.492C372.269 479.492 479.493 372.268 479.493 240C479.493 107.731 372.269 0.506836 240 0.506836C107.732 0.506836 0.507812 107.731 0.507812 240C0.507812 372.268 107.732 479.492 240 479.492Z" fill="#FFC500"/>
<path d="M256.976 445.581C124.684 445.581 17.4838 338.342 17.4838 206.088C17.451 175.361 23.3337 144.914 34.8106 116.41C12.2972 153.698 0.43335 196.443 0.508164 240C0.508164 372.254 107.747 479.493 240.001 479.493C340.567 479.493 426.654 417.522 462.128 329.678C420.215 399.142 344.001 445.581 256.976 445.581Z" fill="#FF9F1E"/>
<path d="M240.001 0.50723C188.688 0.413966 138.716 16.8934 97.5234 47.4926C154.066 25.6733 216.219 23.0812 274.382 40.117C273.881 40.7314 273.449 41.3988 273.094 42.1072C265.992 55.3365 280.47 76.878 305.367 90.2243C330.265 103.571 356.255 103.727 363.358 90.5365C364.034 89.2476 364.521 87.8674 364.801 86.4389C429.27 136.39 470.909 214.478 471.299 302.283C476.755 281.972 479.511 261.031 479.494 240C479.494 107.746 372.255 0.50723 240.001 0.50723Z" fill="#FFE059"/>
<path d="M382.543 116.34C383.81 109.824 375.781 102.781 364.61 100.61C353.439 98.4383 343.357 101.96 342.09 108.477C340.824 114.993 348.852 122.036 360.023 124.207C371.194 126.378 381.276 122.856 382.543 116.34Z" fill="#FFE059"/>
<path d="M330.426 125.355C332.28 122.145 329.999 117.358 325.333 114.664C320.667 111.97 315.381 112.389 313.528 115.599C311.674 118.81 313.955 123.596 318.621 126.29C323.287 128.984 328.572 128.566 330.426 125.355Z" fill="#FFE059"/>
<path d="M348.139 196.995C345.984 197 343.87 196.409 342.031 195.286C340.192 194.163 338.699 192.553 337.719 190.634C331.866 179.2 324.373 172.332 317.7 172.332C311.026 172.332 303.534 179.2 297.68 190.634C296.214 193.303 293.767 195.296 290.856 196.19C287.945 197.084 284.8 196.809 282.089 195.423C279.378 194.037 277.313 191.649 276.334 188.766C275.354 185.883 275.536 182.731 276.841 179.98C287.066 159.961 301.583 148.917 317.7 148.917C333.817 148.917 348.334 159.961 358.558 179.98C359.26 181.346 359.685 182.836 359.81 184.366C359.935 185.896 359.757 187.436 359.285 188.897C358.814 190.358 358.059 191.711 357.064 192.88C356.068 194.049 354.852 195.009 353.485 195.707C351.834 196.564 349.999 197.006 348.139 196.995Z" fill="#00305F"/>
<path d="M131.862 196.995C130.002 197.006 128.167 196.564 126.516 195.707C125.149 195.009 123.933 194.049 122.937 192.88C121.942 191.711 121.187 190.358 120.716 188.897C120.245 187.436 120.066 185.896 120.191 184.366C120.316 182.836 120.741 181.346 121.443 179.98C131.667 159.961 146.184 148.917 162.301 148.917C178.419 148.917 192.936 159.961 203.16 179.98C204.465 182.731 204.647 185.883 203.668 188.766C202.688 191.649 200.623 194.037 197.912 195.423C195.201 196.809 192.056 197.084 189.145 196.19C186.235 195.296 183.787 193.303 182.321 190.634C176.467 179.2 168.975 172.332 162.301 172.332C155.628 172.332 148.136 179.2 142.282 190.634C141.302 192.553 139.81 194.163 137.97 195.286C136.131 196.409 134.017 197 131.862 196.995Z" fill="#00305F"/>
<path d="M181.193 252.332H298.812C303.759 252.332 308.504 254.297 312.002 257.796C315.501 261.294 317.466 266.038 317.466 270.986C317.471 281.162 315.471 291.239 311.581 300.642C307.69 310.044 301.985 318.589 294.791 325.786C287.598 332.983 279.056 338.692 269.655 342.588C260.255 346.483 250.178 348.488 240.002 348.488C219.458 348.488 199.755 340.327 185.228 325.8C170.7 311.272 162.539 291.569 162.539 271.025C162.539 266.077 164.504 261.333 168.003 257.835C171.501 254.336 176.245 252.371 181.193 252.371V252.332Z" fill="#00305F"/>
<path d="M202.812 339.005C214.214 345.245 227.006 348.507 240.003 348.488C253 348.507 265.792 345.245 277.193 339.005C275.125 314.693 259.242 300.41 240.003 300.41C220.764 300.41 204.881 314.693 202.812 339.005Z" fill="#FF4F4F"/>
</svg>
