<svg width="800" height="800" viewBox="0 0 800 800" fill="none" xmlns="http://www.w3.org/2000/svg">
<path d="M539.668 66.667H260.335C139.001 66.667 66.668 139 66.668 260.334V539.334C66.668 661 139.001 733.334 260.335 733.334H539.335C660.668 733.334 733.001 661 733.001 539.667V260.334C733.335 139 661.001 66.667 539.668 66.667ZM400.001 529.334C328.668 529.334 270.668 471.334 270.668 400C270.668 328.667 328.668 270.667 400.001 270.667C471.335 270.667 529.335 328.667 529.335 400C529.335 471.334 471.335 529.334 400.001 529.334ZM597.335 229.334C595.668 233.334 593.335 237 590.335 240.334C587.001 243.334 583.335 245.667 579.335 247.334C575.335 249 571.001 250 566.668 250C557.668 250 549.335 246.667 543.001 240.334C540.001 237 537.668 233.334 536.001 229.334C534.335 225.334 533.335 221 533.335 216.667C533.335 212.334 534.335 208 536.001 204C537.668 199.667 540.001 196.334 543.001 193C550.668 185.334 562.335 181.667 573.001 184C575.335 184.334 577.335 185 579.335 186C581.335 186.667 583.335 187.667 585.335 189C587.001 190 588.668 191.667 590.335 193C593.335 196.334 595.668 199.667 597.335 204C599.001 208 600.001 212.334 600.001 216.667C600.001 221 599.001 225.334 597.335 229.334Z" fill="#FFF2F2"/>
</svg>
